HIERARCHY
ROOT Hips
{
	OFFSET -3.958830 18.904000 13.208200
	CHANNELS 6 Xposition Yposition Zposition Zrotation Yrotation Xrotation 
	JOINT LHipJoint
	{
		OFFSET 0.000000 0.000000 0.000000
		CHANNELS 3 Zrotation Yrotation Xrotation
		JOINT LeftUpLeg
		{
			OFFSET 1.800000 -1.400000 0.085000
			CHANNELS 3 Zrotation Yrotation Xrotation
			JOINT LeftLeg
			{
				OFFSET 2.215000 -6.000000 0.000000
				CHANNELS 3 Zrotation Yrotation Xrotation
				JOINT LeftFoot
				{
					OFFSET 2.500000 -6.900000 0.000000
					CHANNELS 3 Zrotation Yrotation Xrotation
					JOINT LeftToeBase
					{
						OFFSET 0.200000 -0.500000 1.950000
						CHANNELS 3 Zrotation Yrotation Xrotation
						End Site
						{
							OFFSET 0.000000 0.000000 0.000000
						}
					}
				}
			}
		}
	}
	JOINT RHipJoint
	{
		OFFSET 0.000000 0.000000 0.000000
		CHANNELS 3 Zrotation Yrotation Xrotation
		JOINT RightUpLeg
		{
			OFFSET -1.800000 -1.400000 0.085000
			CHANNELS 3 Zrotation Yrotation Xrotation
			JOINT RightLeg
			{
				OFFSET -2.215000 -6.000000 0.000000
				CHANNELS 3 Zrotation Yrotation Xrotation
				JOINT RightFoot
				{
					OFFSET -2.500000 -6.900000 0.000000
					CHANNELS 3 Zrotation Yrotation Xrotation
					JOINT RightToeBase
					{
						OFFSET -0.200000 -0.500000 1.950000
						CHANNELS 3 Zrotation Yrotation Xrotation
						End Site
						{
							OFFSET 0.000000 0.000000 0.000000
						}
					}
				}
			}
		}
	}
	JOINT LowerBack
	{
		OFFSET 0.000000 0.000000 0.000000
		CHANNELS 3 Zrotation Yrotation Xrotation
		JOINT Spine
		{
			OFFSET -0.087000 1.940000 -0.288900
			CHANNELS 3 Zrotation Yrotation Xrotation
			JOINT Spine1
			{
				OFFSET 0.000000 1.950000 0.060000
				CHANNELS 3 Zrotation Yrotation Xrotation
				JOINT Neck
				{
					OFFSET 0.000000 0.000000 0.000000
					CHANNELS 3 Zrotation Yrotation Xrotation
					JOINT Neck1
					{
						OFFSET 0.000000 1.600000 0.340000
						CHANNELS 3 Zrotation Yrotation Xrotation
						JOINT Head
						{
							OFFSET 0.000000 1.667000 -0.240000
							CHANNELS 3 Zrotation Yrotation Xrotation
							End Site
							{
								OFFSET 0.000000 0.000000 0.000000
							}
						}
					}
				}
				JOINT LeftShoulder
				{
					OFFSET 0.000000 0.000000 0.000000
					CHANNELS 3 Zrotation Yrotation Xrotation
					JOINT LeftArm
					{
						OFFSET 2.700000 1.550000 -0.730000
						CHANNELS 3 Zrotation Yrotation Xrotation
						JOINT LeftForeArm
						{
							OFFSET 5.450000 0.000000 0.000000
							CHANNELS 3 Zrotation Yrotation Xrotation
							JOINT LeftHand
							{
								OFFSET 3.450000 0.000000 0.000000
								CHANNELS 3 Zrotation Yrotation Xrotation
								JOINT LeftHandIndex1
								{
									OFFSET 0.750000 0.000000 0.000000
									CHANNELS 3 Zrotation Yrotation Xrotation
									End Site
									{
										OFFSET 0.000000 0.000000 0.000000
									}
								}
							}
						}
					}
				}
				JOINT RightShoulder
				{
					OFFSET 0.000000 0.000000 0.000000
					CHANNELS 3 Zrotation Yrotation Xrotation
					JOINT RightArm
					{
						OFFSET -2.700000 1.550000 -0.730000
						CHANNELS 3 Zrotation Yrotation Xrotation
						JOINT RightForeArm
						{
							OFFSET -5.450000 0.000000 0.000000
							CHANNELS 3 Zrotation Yrotation Xrotation
							JOINT RightHand
							{
								OFFSET -3.450000 0.000000 0.000000
								CHANNELS 3 Zrotation Yrotation Xrotation
								JOINT RightHandIndex1
								{
									OFFSET -0.750000 0.000000 0.000000
									CHANNELS 3 Zrotation Yrotation Xrotation
									End Site
									{
										OFFSET 0.000000 0.000000 0.000000
									}
								}
							}
						}
					}
				}
			}
		}
	}
}
MOTION
Frames: 6
Frame Time: 0.016667
3.158270 17.166510 -2.357920 -3.988008 -16.170439 7.086559 -15.044646 14.228668 2.894546 7.574116 -1.244358 -13.709879 -4.364392 5.756288 17.972283 -0.733286 4.636811 3.266760 0.623310 0.041770 0.542760 18.160384 -11.076878 3.021128 1.484656 0.355537 -5.073121 2.224755 -4.923657 16.942669 -0.621312 -3.908284 3.268120 0.118850 0.338880 0.530130 -3.196259 -2.688129 -7.747459 11.210405 0.279998 14.748674 -3.572573 2.363258 -4.769649 4.679430 -1.937478 -8.247860 -5.465251 4.324696 36.840635 -10.973280 6.962520 -12.998450 -15.626811 1.326109 -1.074036 -1.685449 0.455164 0.181283 12.010347 -3.711302 -1.124340 -4.129728 2.587263 0.881160 0.273270 0.125390 0.425840 6.387665 1.561569 5.496590 10.106842 -2.986822 -3.689170 -21.065420 14.231599 -1.493524 1.938439 -1.509978 -0.309430 0.264400 -0.158650 -0.373480 
3.182190 17.117400 -2.383640 -4.828611 -16.799716 6.667299 -15.029547 14.366589 2.893988 8.517130 -1.104819 -12.787243 -4.576542 5.967878 18.254290 -0.700253 4.765511 3.204316 0.654530 0.096680 0.539950 18.163027 -11.006661 3.019284 2.230701 0.685726 -5.617459 1.828210 -5.032946 19.674100 -0.664318 -4.004719 3.231156 0.137020 0.310830 0.527040 -3.207667 -3.010579 -7.776340 12.345472 -0.912819 15.951884 -3.896882 1.562327 -5.281138 4.607562 -2.580894 -8.155534 -6.796255 5.352094 37.320049 -10.513360 7.308760 -14.500370 -15.784746 1.431575 -1.264182 -1.202553 -0.306593 0.195277 11.809174 -3.435959 -1.114704 -4.091128 2.591241 0.900690 0.243640 0.158290 0.438360 6.672559 1.649590 5.304386 9.652020 -2.876235 -3.815362 -21.157587 16.755163 -1.712342 1.898711 -1.503458 -0.289410 0.267930 -0.172590 -0.364940 
3.211920 17.077520 -2.422750 -5.746030 -18.502015 6.470099 -15.036044 14.451671 2.910588 9.515788 -0.952054 -12.002713 -5.228787 6.248114 18.155859 -0.638005 4.884483 3.137782 0.730580 0.191030 0.574440 18.153035 -10.926219 2.993473 2.644795 1.361181 -6.984502 1.590047 -5.184883 23.154249 -0.734356 -4.162467 3.140799 0.164870 0.260960 0.565580 -3.157118 -3.255490 -7.781118 12.842840 -1.470728 17.033862 -3.361474 1.222077 -5.071383 4.437380 -3.127299 -8.159332 -7.847382 6.299684 37.201009 -9.991840 7.702950 -16.205640 -16.179709 1.157607 -1.133574 -1.999334 -0.954138 0.108222 12.941971 -2.038882 -1.074581 -4.055686 2.652785 0.912070 0.206620 0.218920 0.463640 7.467646 2.229186 5.111140 8.754226 -1.805642 -3.934642 -22.971614 15.115458 -1.829414 1.943246 -1.546034 -0.229050 0.229940 -0.218250 -0.346740 
3.233100 17.039880 -2.456890 -6.303080 -19.798544 6.260693 -15.069158 14.551018 2.948808 10.229231 -0.870990 -11.488674 -5.853131 6.538124 18.125373 -0.591851 5.016234 3.087254 0.743580 0.218860 0.585770 18.114910 -10.814679 2.974862 2.769873 2.234493 -8.793457 1.434549 -5.439992 27.259667 -0.787383 -4.415374 3.040351 0.168880 0.248140 0.560080 -3.031635 -3.585858 -7.824630 12.567450 -2.063333 18.354188 -2.747217 0.834003 -5.672331 4.358753 -3.530671 -8.212023 -8.671341 7.220268 37.261072 -9.717460 8.290090 -17.066470 -16.044596 1.056647 -1.054158 -2.775054 -1.987498 0.083742 13.553191 -0.153656 -0.970328 -4.062467 2.634965 0.916470 0.190420 0.239890 0.464500 7.658313 2.633665 4.918842 8.913177 -0.527908 -4.169311 -24.721613 14.102002 -1.966766 1.972124 -1.544353 -0.216330 0.238730 -0.228930 -0.340950 
3.262390 17.001270 -2.481990 -6.641553 -20.718698 6.264801 -15.075695 14.562469 2.949438 10.333004 -0.917211 -11.289350 -6.051357 6.605201 18.195348 -0.570621 5.050822 3.061572 0.796920 0.291340 0.581870 18.113768 -10.749156 2.956209 2.088116 3.196445 -11.315255 2.062163 -6.111084 31.578649 -0.869736 -4.862374 2.860613 0.205880 0.240960 0.593920 -3.020103 -3.700773 -7.801363 12.484047 -2.727097 19.038673 -2.476098 0.180951 -5.798844 4.071162 -3.798800 -7.962134 -8.903389 7.891208 35.827673 -8.972840 8.603730 -17.425560 -15.740716 1.141423 -1.029605 -3.448010 -2.779397 0.113656 13.710674 0.179678 -0.961431 -4.047579 2.716876 0.899990 0.193120 0.256740 0.499660 7.984292 2.544146 4.464836 9.327013 1.063055 -4.260181 -26.030786 12.197137 -1.992266 2.001446 -1.616882 -0.179900 0.205230 -0.258200 -0.319240 
3.292640 16.973520 -2.511940 -6.950621 -21.891982 6.027636 -15.118537 14.634328 2.943909 10.317156 -1.012409 -11.368408 -5.995058 6.760545 19.091859 -0.522646 5.120893 3.014288 0.837550 0.344100 0.599750 18.072987 -10.607649 2.978642 0.801197 4.226089 -14.027337 3.427199 -7.266617 36.116987 -0.982093 -5.467601 2.620813 0.221910 0.209690 0.611130 -2.890922 -4.026802 -7.837310 11.806812 -3.265689 20.498443 -1.652692 -0.277823 -6.416787 3.932654 -4.174263 -7.889691 -9.506232 8.694783 34.950656 -8.558780 9.152400 -17.538590 -15.347910 1.343025 -0.989307 -4.452268 -3.493397 0.115271 14.050079 0.790781 -0.893350 -4.024701 2.789151 0.880260 0.178560 0.274160 0.508400 8.072400 2.620682 4.199482 9.542256 1.867660 -4.350515 -26.981905 12.889035 -2.246186 2.013234 -1.671554 -0.138760 0.160480 -0.288150 -0.307330 
